<mxfile host="Electron" modified="2023-11-21T11:37:06.728Z" agent="Mozilla/5.0 (Windows NT 10.0; Win64; x64) AppleWebKit/537.36 (KHTML, like Gecko) draw.io/22.0.3 Chrome/114.0.5735.289 Electron/25.8.4 Safari/537.36" etag="lYRGNzBfOwmhc8RjlLJK" version="22.0.3" type="device">
  <diagram name="Page-1" id="C3b5anDbKbSsGjJ1M5k2">
    <mxGraphModel dx="1948" dy="1928" grid="1" gridSize="10" guides="1" tooltips="1" connect="1" arrows="1" fold="1" page="1" pageScale="1" pageWidth="850" pageHeight="1100" math="0" shadow="0">
      <root>
        <mxCell id="0" />
        <mxCell id="1" parent="0" />
        <mxCell id="WHF8MydAoVz04Efa8Z6b-1" style="rounded=0;orthogonalLoop=1;jettySize=auto;html=1;exitX=1;exitY=0.5;exitDx=0;exitDy=0;entryX=0.5;entryY=1;entryDx=0;entryDy=0;endArrow=none;endFill=0;" parent="1" source="WHF8MydAoVz04Efa8Z6b-19" target="WHF8MydAoVz04Efa8Z6b-7" edge="1">
          <mxGeometry relative="1" as="geometry">
            <mxPoint x="217.52941176470586" y="70" as="targetPoint" />
          </mxGeometry>
        </mxCell>
        <mxCell id="WHF8MydAoVz04Efa8Z6b-2" style="rounded=0;orthogonalLoop=1;jettySize=auto;html=1;exitX=1;exitY=1;exitDx=0;exitDy=0;endArrow=none;endFill=0;" parent="1" source="WHF8MydAoVz04Efa8Z6b-4" edge="1">
          <mxGeometry relative="1" as="geometry">
            <mxPoint x="320" y="220" as="targetPoint" />
          </mxGeometry>
        </mxCell>
        <mxCell id="WHF8MydAoVz04Efa8Z6b-3" style="edgeStyle=orthogonalEdgeStyle;rounded=0;orthogonalLoop=1;jettySize=auto;html=1;exitX=0.5;exitY=0;exitDx=0;exitDy=0;entryX=0.5;entryY=1;entryDx=0;entryDy=0;" parent="1" source="WHF8MydAoVz04Efa8Z6b-4" target="WHF8MydAoVz04Efa8Z6b-19" edge="1">
          <mxGeometry relative="1" as="geometry" />
        </mxCell>
        <mxCell id="WHF8MydAoVz04Efa8Z6b-4" value="&lt;font style=&quot;font-size: 14px;&quot;&gt;Evidencija o osposobljavanju zaposlenih&lt;/font&gt;" style="rounded=0;whiteSpace=wrap;html=1;fontSize=14;" parent="1" vertex="1">
          <mxGeometry x="120" y="120" width="130" height="80" as="geometry" />
        </mxCell>
        <mxCell id="WHF8MydAoVz04Efa8Z6b-5" value="id#" style="ellipse;whiteSpace=wrap;html=1;align=center;" parent="1" vertex="1">
          <mxGeometry x="250" y="70" width="70" height="30" as="geometry" />
        </mxCell>
        <mxCell id="WHF8MydAoVz04Efa8Z6b-6" value="" style="endArrow=none;html=1;rounded=0;entryX=1;entryY=0;entryDx=0;entryDy=0;exitX=0.28;exitY=0.95;exitDx=0;exitDy=0;exitPerimeter=0;" parent="1" source="WHF8MydAoVz04Efa8Z6b-5" target="WHF8MydAoVz04Efa8Z6b-4" edge="1">
          <mxGeometry width="50" height="50" relative="1" as="geometry">
            <mxPoint x="220" y="279" as="sourcePoint" />
            <mxPoint x="206" y="140" as="targetPoint" />
          </mxGeometry>
        </mxCell>
        <mxCell id="WHF8MydAoVz04Efa8Z6b-7" value="datum teorijskog osposobljavanja" style="ellipse;whiteSpace=wrap;html=1;" parent="1" vertex="1">
          <mxGeometry x="260" y="-140" width="100" height="50" as="geometry" />
        </mxCell>
        <mxCell id="WHF8MydAoVz04Efa8Z6b-8" style="rounded=0;orthogonalLoop=1;jettySize=auto;html=1;exitX=0.25;exitY=0;exitDx=0;exitDy=0;entryX=0.5;entryY=1;entryDx=0;entryDy=0;endArrow=none;endFill=0;" parent="1" source="WHF8MydAoVz04Efa8Z6b-19" target="WHF8MydAoVz04Efa8Z6b-9" edge="1">
          <mxGeometry relative="1" as="geometry">
            <mxPoint x="97.52941176470586" y="70" as="targetPoint" />
            <mxPoint x="98" y="120" as="sourcePoint" />
          </mxGeometry>
        </mxCell>
        <mxCell id="WHF8MydAoVz04Efa8Z6b-9" value="datum prakticnog osposobljavanja" style="ellipse;whiteSpace=wrap;html=1;" parent="1" vertex="1">
          <mxGeometry x="50" y="-160" width="100" height="50" as="geometry" />
        </mxCell>
        <mxCell id="WHF8MydAoVz04Efa8Z6b-10" style="rounded=0;orthogonalLoop=1;jettySize=auto;html=1;entryX=1;entryY=1;entryDx=0;entryDy=0;endArrow=none;endFill=0;" parent="1" source="WHF8MydAoVz04Efa8Z6b-19" target="WHF8MydAoVz04Efa8Z6b-11" edge="1">
          <mxGeometry relative="1" as="geometry">
            <mxPoint x="-12.470588235294144" y="59" as="targetPoint" />
            <mxPoint x="120" y="-40" as="sourcePoint" />
          </mxGeometry>
        </mxCell>
        <mxCell id="WHF8MydAoVz04Efa8Z6b-11" value="datum teorijske provere" style="ellipse;whiteSpace=wrap;html=1;" parent="1" vertex="1">
          <mxGeometry x="-30" y="-90" width="100" height="50" as="geometry" />
        </mxCell>
        <mxCell id="WHF8MydAoVz04Efa8Z6b-12" style="rounded=0;orthogonalLoop=1;jettySize=auto;html=1;exitX=0.618;exitY=-0.02;exitDx=0;exitDy=0;entryX=0.5;entryY=1;entryDx=0;entryDy=0;endArrow=none;endFill=0;exitPerimeter=0;" parent="1" source="WHF8MydAoVz04Efa8Z6b-19" target="WHF8MydAoVz04Efa8Z6b-13" edge="1">
          <mxGeometry relative="1" as="geometry">
            <mxPoint x="-132.47058823529414" y="59" as="targetPoint" />
            <mxPoint x="-65" y="107" as="sourcePoint" />
          </mxGeometry>
        </mxCell>
        <mxCell id="WHF8MydAoVz04Efa8Z6b-13" value="datum prakticne provere" style="ellipse;whiteSpace=wrap;html=1;" parent="1" vertex="1">
          <mxGeometry x="160" y="-170" width="100" height="50" as="geometry" />
        </mxCell>
        <mxCell id="WHF8MydAoVz04Efa8Z6b-14" style="rounded=0;orthogonalLoop=1;jettySize=auto;html=1;exitX=1;exitY=0;exitDx=0;exitDy=0;entryX=0;entryY=0.75;entryDx=0;entryDy=0;endArrow=none;endFill=0;" parent="1" source="WHF8MydAoVz04Efa8Z6b-15" target="WHF8MydAoVz04Efa8Z6b-4" edge="1">
          <mxGeometry relative="1" as="geometry" />
        </mxCell>
        <mxCell id="WHF8MydAoVz04Efa8Z6b-15" value="rizici" style="ellipse;whiteSpace=wrap;html=1;" parent="1" vertex="1">
          <mxGeometry x="-20" y="190" width="60" height="40" as="geometry" />
        </mxCell>
        <mxCell id="WHF8MydAoVz04Efa8Z6b-16" style="rounded=0;orthogonalLoop=1;jettySize=auto;html=1;exitX=1;exitY=0;exitDx=0;exitDy=0;entryX=0.103;entryY=1.032;entryDx=0;entryDy=0;endArrow=none;endFill=0;entryPerimeter=0;" parent="1" source="WHF8MydAoVz04Efa8Z6b-17" target="WHF8MydAoVz04Efa8Z6b-4" edge="1">
          <mxGeometry relative="1" as="geometry">
            <mxPoint x="150" y="220" as="targetPoint" />
          </mxGeometry>
        </mxCell>
        <mxCell id="WHF8MydAoVz04Efa8Z6b-17" value="uputstva" style="ellipse;whiteSpace=wrap;html=1;" parent="1" vertex="1">
          <mxGeometry x="10" y="230" width="60" height="40" as="geometry" />
        </mxCell>
        <mxCell id="WHF8MydAoVz04Efa8Z6b-18" value="konkretne mere" style="ellipse;whiteSpace=wrap;html=1;" parent="1" vertex="1">
          <mxGeometry x="305" y="210" width="75" height="50" as="geometry" />
        </mxCell>
        <mxCell id="WHF8MydAoVz04Efa8Z6b-19" value="&lt;font style=&quot;font-size: 14px;&quot;&gt;Stavka o osposobljavanju i proveri&lt;/font&gt;" style="shape=ext;margin=3;double=1;whiteSpace=wrap;html=1;align=center;rounded=0;" parent="1" vertex="1">
          <mxGeometry x="130" y="-70" width="120" height="70" as="geometry" />
        </mxCell>
        <mxCell id="WHF8MydAoVz04Efa8Z6b-20" value="&lt;font style=&quot;font-size: 12px;&quot;&gt;(1,1) Poseduje&lt;/font&gt;" style="edgeLabel;html=1;align=center;verticalAlign=middle;resizable=0;points=[];fontSize=12;" parent="1" vertex="1" connectable="0">
          <mxGeometry x="185" y="94.5" as="geometry" />
        </mxCell>
        <mxCell id="WHF8MydAoVz04Efa8Z6b-21" style="rounded=0;orthogonalLoop=1;jettySize=auto;html=1;exitX=0;exitY=1;exitDx=0;exitDy=0;entryX=1;entryY=0.75;entryDx=0;entryDy=0;endArrow=none;endFill=0;" parent="1" source="WHF8MydAoVz04Efa8Z6b-22" target="WHF8MydAoVz04Efa8Z6b-19" edge="1">
          <mxGeometry relative="1" as="geometry" />
        </mxCell>
        <mxCell id="WHF8MydAoVz04Efa8Z6b-22" value="rb#" style="ellipse;whiteSpace=wrap;html=1;" parent="1" vertex="1">
          <mxGeometry x="360" y="-90" width="70" height="50" as="geometry" />
        </mxCell>
        <mxCell id="Eav0SsKh3rhxOfeYcI6y-1" style="rounded=0;orthogonalLoop=1;jettySize=auto;html=1;exitX=1;exitY=0;exitDx=0;exitDy=0;entryX=0;entryY=0.75;entryDx=0;entryDy=0;endArrow=none;endFill=0;" edge="1" parent="1" source="Eav0SsKh3rhxOfeYcI6y-2">
          <mxGeometry relative="1" as="geometry">
            <mxPoint x="130" y="-10" as="targetPoint" />
          </mxGeometry>
        </mxCell>
        <mxCell id="Eav0SsKh3rhxOfeYcI6y-2" value="rizici" style="ellipse;whiteSpace=wrap;html=1;fontStyle=1;fontColor=#FF3333;" vertex="1" parent="1">
          <mxGeometry x="-10" width="60" height="40" as="geometry" />
        </mxCell>
      </root>
    </mxGraphModel>
  </diagram>
</mxfile>
